<svg width="34" height="28" viewBox="0 0 34 28" fill="none" xmlns="http://www.w3.org/2000/svg">
<path d="M28.2 0H5.8C4.2536 0 3 1.2536 3 2.8V25.2C3 26.7464 4.2536 28 5.8 28H28.2C29.7464 28 31 26.7464 31 25.2V2.8C31 1.2536 29.7464 0 28.2 0Z" fill="#2E343B" fill-opacity="0.8"/>
<path d="M12.8539 4L21.1461 4C21.8687 4 22.2634 4.75698 21.8008 5.25557L17.6547 9.72456C17.314 10.0918 16.686 10.0918 16.3453 9.72456L12.1992 5.25557C11.7366 4.75698 12.1313 4 12.8539 4Z" fill="#9ACCF2"/>
<path d="M8 15C7.44772 15 7 14.5523 7 14C7 13.4477 7.44771 13 8 13L26 13C26.5523 13 27 13.4477 27 14C27 14.5523 26.5523 15 26 15L8 15Z" fill="#CDE6FA"/>
<path d="M12.8539 24L21.1461 24C21.8687 24 22.2634 23.243 21.8008 22.7444L17.6547 18.2754C17.314 17.9082 16.686 17.9082 16.3453 18.2754L12.1992 22.7444C11.7366 23.243 12.1313 24 12.8539 24Z" fill="#9ACCF2"/>
</svg>
