<svg width="38" height="28" viewBox="0 0 38 28" fill="none" xmlns="http://www.w3.org/2000/svg">
<path d="M29.9148 0H7.51484C5.96845 0 4.71484 1.2536 4.71484 2.8V25.2C4.71484 26.7464 5.96845 28 7.51484 28H29.9148C31.4612 28 32.7148 26.7464 32.7148 25.2V2.8C32.7148 1.2536 31.4612 0 29.9148 0Z" fill="#2E343B" fill-opacity="0.8"/>
<path d="M8.71484 18.1461L8.71484 9.85387C8.71484 9.13131 9.47182 8.73659 9.97041 9.19916L14.4394 13.3453C14.8067 13.686 14.8067 14.314 14.4394 14.6547L9.97041 18.8008C9.47182 19.2634 8.71484 18.8687 8.71484 18.1461Z" fill="#9ACCF2"/>
<path d="M19.7148 23C19.7148 23.5523 19.2671 24 18.7148 24C18.1626 24 17.7148 23.5523 17.7148 23L17.7148 5C17.7148 4.44772 18.1626 4 18.7148 4C19.2671 4 19.7148 4.44772 19.7148 5L19.7148 23Z" fill="#CDE6FA"/>
<path d="M28.7148 18.1461L28.7148 9.85387C28.7148 9.13131 27.9579 8.73659 27.4593 9.19916L22.9903 13.3453C22.623 13.686 22.623 14.314 22.9903 14.6547L27.4593 18.8008C27.9579 19.2634 28.7148 18.8687 28.7148 18.1461Z" fill="#9ACCF2"/>
</svg>
