<svg width="40" height="28" viewBox="0 0 40 28" fill="none" xmlns="http://www.w3.org/2000/svg">
<g clip-path="url(#clip0_1813_7205)">
<path d="M31.2 0H8.8C7.2536 0 6 1.2536 6 2.8V25.2C6 26.7464 7.2536 28 8.8 28H31.2C32.7464 28 34 26.7464 34 25.2V2.8C34 1.2536 32.7464 0 31.2 0Z" fill="#2E343B" fill-opacity="0.8"/>
<path d="M18 2C23.5228 2 28 6.47715 28 12C28 17.5228 23.5228 22 18 22C12.4772 22 8 17.5228 8 12C8 6.47715 12.4772 2 18 2ZM18 5C14.134 5 11 8.13401 11 12C11 15.866 14.134 19 18 19C21.866 19 25 15.866 25 12C25 8.13401 21.866 5 18 5Z" fill="#9ACCF2"/>
<path d="M22.0005 17.9995L24 16L31 23C31.5523 23.5523 31.5523 24.4477 31 25C30.4477 25.5523 29.5523 25.5522 29 24.9999L22.0005 17.9995Z" fill="#9ACCF2"/>
<path d="M23 11V13H13V11H23Z" fill="#CDE6FA"/>
</g>
<defs>
<clipPath id="clip0_1813_7205">
<rect width="40" height="28" fill="white"/>
</clipPath>
</defs>
</svg>
