<svg width="28" height="28" viewBox="0 0 28 28" fill="none" xmlns="http://www.w3.org/2000/svg">
<rect width="28" height="28" rx="4" fill="#2E343B" fill-opacity="0.8"/>
<path fill-rule="evenodd" clip-rule="evenodd" d="M10.0714 21.1429L8.51978 22.5714H6.85714V21.1429H5.39478L5.42857 19.3571L6.85714 17.9286L10.0714 21.1429ZM15.4286 10.0714C15.6258 10.2687 15.6258 10.5885 15.4286 10.7857L9 17.2143C8.80276 17.4115 8.48296 17.4115 8.28571 17.2143C8.08847 17.017 8.08847 16.6972 8.28571 16.5L14.7143 10.0714C14.9115 9.87418 15.2313 9.87418 15.4286 10.0714ZM20.8749 12.75L15.25 7.125L4 18.375V23.9999H9.62498L20.8749 12.75Z" fill="#CDE6FA"/>
<path d="M23.6339 8.13388C24.115 8.615 24.123 9.39259 23.6518 9.88344L21.5 12.1249L15.875 6.49991L18.1165 4.34823C18.6073 3.87706 19.3849 3.885 19.866 4.3661L23.6339 8.13388Z" fill="#3A96D9"/>
</svg>
