<svg width="28" height="28" viewBox="0 0 28 28" fill="none" xmlns="http://www.w3.org/2000/svg">
<path d="M25.2 0H2.8C1.2536 0 0 1.2536 0 2.8V25.2C0 26.7464 1.2536 28 2.8 28H25.2C26.7464 28 28 26.7464 28 25.2V2.8C28 1.2536 26.7464 0 25.2 0Z" fill="#2E343B" fill-opacity="0.8"/>
<path d="M13.3016 21.6996L16.1016 17.4996L20.3016 21.6996L21.7016 20.2996L17.5016 16.0996L21.7016 13.2996L7.35156 7.34961L13.3016 21.6996Z" fill="#3A96D9"/>
<path fill-rule="evenodd" clip-rule="evenodd" d="M5.25 5.25L23.8 13.3L18.9 16.1L23.1 20.3L20.3 23.1L16.1 18.9L13.3 23.8L5.25 5.25ZM7.94619 7.94619L13.4714 20.6782L15.7939 16.614L20.3 21.1201L21.1201 20.3L16.614 15.7939L20.6782 13.4714L7.94619 7.94619Z" fill="#CDE6FA"/>
</svg>
