<svg xmlns="http://www.w3.org/2000/svg" width="33" height="33" viewBox="0 0 33 33">
  <g id="toolbar_select_prims" transform="translate(-11594 1168)">
    <rect id="Rectangle_678" data-name="Rectangle 678" width="33" height="33" transform="translate(11594 -1168)" fill="none"/>
    <path id="Path_2671" data-name="Path 2671" d="M805.042,578.886l.181.24.031.093.031.119v.274l-.031.118-.031.122-.059.153-.09.121-.184.15-.209.122-.274.031h-5.352l2.812,6.743.062.181.028.153-.028.181-.062.181-.059.153-.122.118-.122.121-.15.091-2.481,1.06-.181.059-.181.031-.153-.031-.181-.059-.15-.059-.122-.122-.122-.153-.09-.122-2.662-6.409-4.355,4.383-.122.122-.15.09-.181.062-.153.028-.181-.028-.181-.062-.212-.15-.181-.153-.122-.24-.031-.274v-21.26l.031-.3.122-.212.181-.212.212-.15.181-.059h.334l.181.059.15.09.122.121,14.3,14.486Z" transform="translate(10815 -1729)" fill="#e38a24" fill-rule="evenodd"/>
    <path id="Path_2695" data-name="Path 2695" d="M4.339,2.053l.038.046.028.047.018.046v.113l-.018.046L4.377,2.4l-.038.046L4.3,2.484l-.046.028-.056.01-.047.01H.281l-.056-.01-.046-.01L.131,2.484.094,2.446.057,2.4.028,2.352.01,2.306,0,2.249l.01-.056.018-.046L.057,2.1l.037-.046L2.025.094,2.062.056,2.109.028,2.165.01,2.222,0l.046.01.056.018.047.028.038.038,1.93,1.959Z" transform="translate(11626.424 -1138.984) rotate(135)" fill="#c6c6c6" fill-rule="evenodd"/>
  </g>
</svg>
