<svg width="28" height="28" viewBox="0 0 28 28" fill="none" xmlns="http://www.w3.org/2000/svg">
<path d="M25.2 0H2.8C1.2536 0 0 1.2536 0 2.8V25.2C0 26.7464 1.2536 28 2.8 28H25.2C26.7464 28 28 26.7464 28 25.2V2.8C28 1.2536 26.7464 0 25.2 0Z" fill="#2E343B" fill-opacity="0.8"/>
<rect width="10" height="10" transform="translate(9 9)" fill="#9ACCF2"/>
<path d="M26 6V8H20V2H22V6H26Z" fill="#CDE6FA"/>
<path d="M2 6V8H8V2H6V6H2Z" fill="#CDE6FA"/>
<path d="M26 22V20H20V26H22V22H26Z" fill="#CDE6FA"/>
<path d="M2 22V20H8V26H6V22H2Z" fill="#CDE6FA"/>
</svg>
