<svg xmlns="http://www.w3.org/2000/svg" width="33" height="33" viewBox="0 0 33 33">
  <g id="toolbar_snap" transform="translate(-10910 -428)">
    <rect id="Rectangle_687" data-name="Rectangle 687" width="33" height="33" transform="translate(10910 428)" fill="none"/>
    <g id="Group_1335" data-name="Group 1335" transform="translate(-748.592 1372)">
      <path id="Path_2676" data-name="Path 2676" d="M522.087,184.826v7.449l-.088.678-.088.651-.176.618-.149.62-.265.59-.237.59-.353.56-.326.563-.383.5-.414.471-.471.441-.472.414-.532.383-.5.356-.59.353-.617.268-.621.265-.651.207-.648.207-.678.116-.739.091-.678.058-.766.03-.709-.03-.736-.058-.681-.091-.706-.116-.651-.207-.648-.207-.62-.265-.621-.268-.59-.353-.529-.356-.532-.383-.471-.414-.444-.441-.414-.471-.383-.5-.353-.563-.3-.56-.3-.59-.207-.59-.207-.62-.119-.618-.119-.651-.058-.678-.03-.709v-6.74h6.935v6.74l.03.383.058.3.119.325.149.265.146.268.176.176.179.207.2.119.237.116.207.119.265.119.237.088.3.061.207.027.234.061h.149l.59.027h.325l.3-.027h.176l.176-.061.237-.027.265-.061.295-.088.237-.119.234-.119.207-.116.176-.119.207-.207.149-.176.176-.268.146-.265.119-.325.03-.3.031-.383v-6.74Z" transform="translate(12186.729 -736.84) rotate(180)" fill="#77878a" fill-rule="evenodd"/>
      <path id="Path_2679" data-name="Path 2679" d="M.044,0H6.981V3.819H.044Z" transform="translate(11678.556 -920.595)" fill="#97acb1"/>
      <path id="Path_2681" data-name="Path 2681" d="M.044,0H6.981V3.819H.044Z" transform="translate(11664.599 -920.595)" fill="#97acb1"/>
    </g>
    <path id="Path_2723" data-name="Path 2723" d="M4.339,2.053l.038.046.028.047.018.046v.113l-.018.046L4.377,2.4l-.038.046L4.3,2.484l-.046.028-.056.01-.047.01H.281l-.056-.01-.046-.01L.131,2.484.094,2.446.057,2.4.028,2.352.01,2.306,0,2.249l.01-.056.018-.046L.057,2.1l.037-.046L2.025.094,2.062.056,2.109.028,2.165.01,2.222,0l.046.01.056.018.047.028.038.038,1.93,1.959Z" transform="translate(10942.424 457.39) rotate(135)" fill="#c6c6c6" fill-rule="evenodd"/>
  </g>
</svg>
