<svg width="34" height="28" viewBox="0 0 34 28" fill="none" xmlns="http://www.w3.org/2000/svg">
<path d="M28.2 0H5.8C4.2536 0 3 1.2536 3 2.8V25.2C3 26.7464 4.2536 28 5.8 28H28.2C29.7464 28 31 26.7464 31 25.2V2.8C31 1.2536 29.7464 0 28.2 0Z" fill="#2E343B" fill-opacity="0.8"/>
<rect x="11" y="8" width="5" height="5" fill="#9ACCF2"/>
<rect x="18" y="8" width="5" height="5" fill="#9ACCF2"/>
<rect x="11" y="15" width="5" height="5" fill="#9ACCF2"/>
<rect x="18" y="15" width="5" height="5" fill="#9ACCF2"/>
<path d="M21 4V2H29V10H27V4H21Z" fill="#CDE6FA"/>
<path d="M13 4V2H5V10H7V4H13Z" fill="#CDE6FA"/>
<path d="M21 24V26H29V18H27V24H21Z" fill="#CDE6FA"/>
<path d="M13 24V26H5V18H7V24H13Z" fill="#CDE6FA"/>
</svg>
