<svg width="28" height="28" viewBox="0 0 28 28" fill="none" xmlns="http://www.w3.org/2000/svg">
<g clip-path="url(#clip0_1813_7208)">
<rect width="28" height="28" fill="#2E343B" fill-opacity="0.8"/>
<path d="M1.41016 14.708L1.41016 13.3076L3.50977 13.3076V14.708L1.41016 14.708Z" fill="#CDE6FA"/>
<path d="M5.60938 14.708V13.3076L7.70898 13.3076V14.708H5.60938Z" fill="#CDE6FA"/>
<path d="M10.5088 14.708V13.3076L12.6094 13.3076V14.708L10.5088 14.708Z" fill="#CDE6FA"/>
<path d="M15.4102 14.708V13.3076L17.5098 13.3076V14.708L15.4102 14.708Z" fill="#CDE6FA"/>
<path d="M20.3105 14.708V13.3076L22.4102 13.3076V14.708L20.3105 14.708Z" fill="#CDE6FA"/>
<path d="M24.5088 14.707V13.3076L26.6094 13.3076V14.707L24.5088 14.707Z" fill="#CDE6FA"/>
<path d="M19.6279 11.9159V13.3154H18.2275V11.9159H14.7275V13.3154H13.3271V11.9159L9.82715 11.9159V13.3154H8.42871L8.42871 11.9159H7.00195L13.5215 5.39641C13.7948 5.12308 14.2374 5.12307 14.5107 5.39641L21.0303 11.9159H19.6279Z" fill="#9ACCF2"/>
<path d="M19.6182 16.0996V14.6992L18.2178 14.6992V16.0996L14.7178 16.0996V14.6992L13.3193 14.6992V16.0996L9.81934 16.0996V14.6992L8.41895 14.6992L8.41895 16.0996L7.00195 16.0996L14.0156 23.1143L21.0303 16.0996L19.6182 16.0996Z" fill="#3A96D9"/>
</g>
<defs>
<clipPath id="clip0_1813_7208">
<rect width="28" height="28" fill="white"/>
</clipPath>
</defs>
</svg>
