<svg xmlns="http://www.w3.org/2000/svg" width="33" height="33" viewBox="0 0 33 33">
  <g id="toolbar_move_local" transform="translate(-10816.3 -249)">
    <path id="Subtraction_1" data-name="Subtraction 1" d="M14.058,27.286a1.988,1.988,0,0,1-1.414-.585L8.472,22.53a3.987,3.987,0,0,0,1.348.233H18.3a3.988,3.988,0,0,0,1.348-.233L15.472,26.7A1.988,1.988,0,0,1,14.058,27.286Zm8.007-7.178h0a3.989,3.989,0,0,0,.232-1.344V9.629a3.955,3.955,0,0,0-.447-1.839L26.7,12.643a2,2,0,0,1,0,2.829Zm-16.015,0L1.414,15.472a2,2,0,0,1,0-2.829L6.267,7.79A3.954,3.954,0,0,0,5.82,9.629v9.134a3.988,3.988,0,0,0,.232,1.344ZM7.98,6.077v0l4.664-4.661a2,2,0,0,1,2.829,0L20.13,6.072A4.039,4.039,0,0,0,18.3,5.63H9.82A4.01,4.01,0,0,0,7.98,6.077Z" transform="translate(10818.73 251.442)" fill="#77878a"/>
    <g id="Group_1366" data-name="Group 1366" transform="translate(10828.688 261.422)">
      <rect id="Rectangle_692" data-name="Rectangle 692" width="8.173" height="8.173" rx="2" fill="#e38a24"/>
    </g>
    <g id="Group_1367" data-name="Group 1367" transform="translate(10823.688 263.672)">
      <rect id="Rectangle_692-2" data-name="Rectangle 692" width="3.173" height="3.672" fill="#77878a"/>
    </g>
    <g id="Group_1370" data-name="Group 1370" transform="translate(10834.611 255.925) rotate(90)">
      <rect id="Rectangle_692-3" data-name="Rectangle 692" width="3.173" height="3.672" fill="#77878a"/>
    </g>
    <g id="Group_1368" data-name="Group 1368" transform="translate(10838.688 263.672)">
      <rect id="Rectangle_692-4" data-name="Rectangle 692" width="3.173" height="3.672" fill="#77878a"/>
    </g>
    <g id="Group_1369" data-name="Group 1369" transform="translate(10834.611 271.925) rotate(90)">
      <rect id="Rectangle_692-5" data-name="Rectangle 692" width="3.173" height="3.672" fill="#77878a"/>
    </g>
    <g id="select" transform="translate(-777.7 1417)">
      <rect id="Rectangle_678" data-name="Rectangle 678" width="33" height="33" transform="translate(11594 -1168)" fill="none"/>
    </g>
    <path id="Path_2721" data-name="Path 2721" d="M4.339,2.053l.038.046.028.047.018.046v.113l-.018.046L4.377,2.4l-.038.046L4.3,2.484l-.046.028-.056.01-.047.01H.281l-.056-.01-.046-.01L.131,2.484.094,2.446.057,2.4.028,2.352.01,2.306,0,2.249l.01-.056.018-.046L.057,2.1l.037-.046L2.025.094,2.062.056,2.109.028,2.165.01,2.222,0l.046.01.056.018.047.028.038.038,1.93,1.959Z" transform="translate(10848.424 278.016) rotate(135)" fill="#c6c6c6" fill-rule="evenodd"/>
  </g>
</svg>
