<svg xmlns="http://www.w3.org/2000/svg" width="33" height="33" viewBox="0 0 33 33">
  <g id="toolbar_rotate_global" transform="translate(-11657 1071)">
    <rect id="Rectangle_694" data-name="Rectangle 694" width="33" height="33" transform="translate(11657 -1071)" fill="none"/>
    <path id="Path_2690" data-name="Path 2690" d="M606.1,60.729l.255.614.18.618.183.618.18.618.112.655-4.324.217-.217-.835-.292-.8-.363-.8-.434-.726-.472-.655-.584-.618-.58-.543-.689-.509-.655-.4-.8-.4-.8-.292-.835-.217-.8-.146h-1.707l-.764.109-.8.183-.764.288-.726.329-.689.4-.618.472-.618.509,1.581,1.655.183.255.109.288.034.146-.034.146-.037.146-.037.18-.071.146-.075.183-.109.109-.142.071-.255.146-.329.037-6.811.707-.217-.037-.146-.071-.217-.112-.146-.109-.146-.18-.071-.183-.075-.18-.034-.217.707-6.923.034-.288.146-.292.183-.255.326-.146.109-.071.183-.037h.326l.255.146.255.183,1.472,1.506.472-.434.472-.4.472-.363.509-.363.509-.288.543-.329.547-.217.58-.292.58-.217.584-.18.58-.183.58-.109.618-.109.58-.109h1.891l.618.037.651.071.618.109.618.183.618.18.58.183.618.255.58.251.547.329.543.288.547.363.509.329.472.4.434.4.472.4.4.472.4.472.4.472.326.509.363.547.288.58.292.543.255.584Z" transform="translate(11079.065 -1120.104)" fill="#77878a" fill-rule="evenodd"/>
    <path id="Path_2692" data-name="Path 2692" d="M606.1,60.729l.255.614.18.618.183.618.18.618.112.655-4.324.217-.217-.835-.292-.8-.363-.8-.434-.726-.472-.655-.584-.618-.58-.543-.689-.509-.655-.4-.8-.4-.8-.292-.835-.217-.8-.146h-1.707l-.764.109-.8.183-.764.288-.726.329-.689.4-.618.472-.618.509,1.581,1.655.183.255.109.288.034.146-.034.146-.037.146-.037.18-.071.146-.075.183-.109.109-.142.071-.255.146-.329.037-6.811.707-.217-.037-.146-.071-.217-.112-.146-.109-.146-.18-.071-.183-.075-.18-.034-.217.707-6.923.034-.288.146-.292.183-.255.326-.146.109-.071.183-.037h.326l.255.146.255.183,1.472,1.506.472-.434.472-.4.472-.363.509-.363.509-.288.543-.329.547-.217.58-.292.58-.217.584-.18.58-.183.58-.109.618-.109.58-.109h1.891l.618.037.651.071.618.109.618.183.618.18.58.183.618.255.58.251.547.329.543.288.547.363.509.329.472.4.434.4.472.4.4.472.4.472.4.472.326.509.363.547.288.58.292.543.255.584Z" transform="translate(12267.506 -989.263) rotate(180)" fill="#77878a" fill-rule="evenodd"/>
    <g id="Group_1354" data-name="Group 1354" transform="translate(11667.407 -1054.492) rotate(-45)">
      <rect id="Rectangle_692" data-name="Rectangle 692" width="8.173" height="8.173" rx="2" fill="#97acb1"/>
    </g>
    <path id="Path_2720" data-name="Path 2720" d="M4.339,2.053l.038.046.028.047.018.046v.113l-.018.046L4.377,2.4l-.038.046L4.3,2.484l-.046.028-.056.01-.047.01H.281l-.056-.01-.046-.01L.131,2.484.094,2.446.057,2.4.028,2.352.01,2.306,0,2.249l.01-.056.018-.046L.057,2.1l.037-.046L2.025.094,2.062.056,2.109.028,2.165.01,2.222,0l.046.01.056.018.047.028.038.038,1.93,1.959Z" transform="translate(11689.424 -1041.984) rotate(135)" fill="#c6c6c6" fill-rule="evenodd"/>
  </g>
</svg>
