<svg width="32" height="28" viewBox="0 0 32 28" fill="none" xmlns="http://www.w3.org/2000/svg">
<g clip-path="url(#clip0_1813_7204)">
<path d="M27.2 0H4.8C3.2536 0 2 1.2536 2 2.8V25.2C2 26.7464 3.2536 28 4.8 28H27.2C28.7464 28 30 26.7464 30 25.2V2.8C30 1.2536 28.7464 0 27.2 0Z" fill="#2E343B" fill-opacity="0.8"/>
<path d="M14 2C19.5228 2 24 6.47715 24 12C24 17.5228 19.5228 22 14 22C8.47715 22 4 17.5228 4 12C4 6.47715 8.47715 2 14 2ZM14 5C10.134 5 7 8.13401 7 12C7 15.866 10.134 19 14 19C17.866 19 21 15.866 21 12C21 8.13401 17.866 5 14 5Z" fill="#9ACCF2"/>
<path d="M18.0005 17.9995L20 16L27 23C27.5523 23.5523 27.5523 24.4477 27 25C26.4477 25.5523 25.5523 25.5522 25 24.9999L18.0005 17.9995Z" fill="#9ACCF2"/>
<path d="M13 11V7H15V11H19V13H15V17H13V13H9V11H13Z" fill="#CDE6FA"/>
</g>
<defs>
<clipPath id="clip0_1813_7204">
<rect width="32" height="28" fill="white"/>
</clipPath>
</defs>
</svg>
