<svg width="28" height="28" viewBox="0 0 28 28" fill="none" xmlns="http://www.w3.org/2000/svg">
<g clip-path="url(#clip0_1813_7206)">
<rect width="28" height="28" rx="2" fill="#2E343B" fill-opacity="0.8"/>
<path d="M14.6699 26.5996H13.2695V24.5H14.6699V26.5996Z" fill="#CDE6FA"/>
<path d="M14.6699 22.3994H13.2695V20.2998H14.6699V22.3994Z" fill="#CDE6FA"/>
<path d="M14.6699 17.5H13.2695V15.4004H14.6699V17.5Z" fill="#CDE6FA"/>
<path d="M14.6699 12.5996H13.2695V10.5H14.6699V12.5996Z" fill="#CDE6FA"/>
<path d="M14.6699 7.69922H13.2695V5.59961H14.6699V7.69922Z" fill="#CDE6FA"/>
<path d="M14.6699 3.5H13.2695V1.40039H14.6699V3.5Z" fill="#CDE6FA"/>
<path d="M11.8711 8.40039H13.2686V9.7998H11.8711V13.2998H13.2686V14.7002H11.8711V18.2002H13.2686V19.5996H11.8711V21.0312L4.85352 14.0146L11.8711 6.99707V8.40039Z" fill="#9ACCF2"/>
<path d="M16.0518 8.40039H14.6523V9.7998H16.0518V13.2998H14.6523V14.7002H16.0518V18.2002H14.6523V19.5996H16.0518V21.0293L23.0674 14.0146L16.0518 6.99902V8.40039Z" fill="#3A96D9"/>
</g>
<defs>
<clipPath id="clip0_1813_7206">
<rect width="28" height="28" fill="white"/>
</clipPath>
</defs>
</svg>
