<svg width="28" height="28" viewBox="0 0 28 28" fill="none" xmlns="http://www.w3.org/2000/svg">
<rect width="28" height="28" rx="4" fill="#2E343B" fill-opacity="0.8"/>
<rect width="5.99995" height="5.99995" transform="matrix(0.707146 0.707068 -0.707146 0.707068 13.998 9.75781)" fill="#9ACCF2"/>
<path d="M22.4852 5.51632C24.7351 7.76624 26.0005 10.8173 26.0009 13.999H22.9969C22.9965 11.6136 22.0485 9.32642 20.3617 7.63958C18.6744 5.95244 16.3857 5.00475 13.9995 5.00467C12.1189 5.00467 10.301 5.59585 8.78815 6.67117L10.8174 8.6981H4.45312L4.53081 2L6.64291 4.52616C8.73669 2.90077 11.3206 2.00104 13.9995 2.00104C17.1821 2.00112 20.2347 3.2661 22.4852 5.51632Z" fill="#CDE6FA"/>
<path d="M5.51567 22.4838C3.26513 20.2335 2 17.1814 2 13.999H5.00396C5.00396 16.3851 5.95177 18.6733 7.63916 20.3605C9.32655 22.0476 11.6151 22.9954 14.0013 22.9954C15.8819 22.9954 17.7 22.4042 19.2127 21.3289L17.1835 19.302H23.5477L23.5488 25.6645L21.358 23.4739C19.2642 25.0993 16.6801 25.999 14.0013 25.9991C10.8187 25.9991 7.7662 24.734 5.51567 22.4838Z" fill="#CDE6FA"/>
</svg>
